<mxfile host="Electron" modified="2023-11-15T19:52:11.851Z" agent="Mozilla/5.0 (Windows NT 10.0; Win64; x64) AppleWebKit/537.36 (KHTML, like Gecko) draw.io/22.0.2 Chrome/114.0.5735.289 Electron/25.8.4 Safari/537.36" etag="S52Qtf1fwtXbWeaXeB9b" version="22.0.2" type="device">
  <diagram name="Page-1" id="5f0bae14-7c28-e335-631c-24af17079c00">
    <mxGraphModel dx="1715" dy="983" grid="1" gridSize="10" guides="1" tooltips="1" connect="1" arrows="1" fold="1" page="1" pageScale="1" pageWidth="1100" pageHeight="850" background="none" math="0" shadow="0">
      <root>
        <mxCell id="0" />
        <mxCell id="1" parent="0" />
        <mxCell id="RFsw-p9UoC0vcu6XtJwX-17" style="edgeStyle=orthogonalEdgeStyle;rounded=0;orthogonalLoop=1;jettySize=auto;html=1;exitX=0.5;exitY=1;exitDx=0;exitDy=0;endArrow=none;endFill=0;startArrow=none;startFill=0;" edge="1" parent="1" source="39150e848f15840c-6" target="RFsw-p9UoC0vcu6XtJwX-1">
          <mxGeometry relative="1" as="geometry" />
        </mxCell>
        <mxCell id="39150e848f15840c-6" value="ISaveHandeler" style="ellipse;whiteSpace=wrap;html=1;rounded=0;shadow=0;comic=0;labelBackgroundColor=none;strokeWidth=1;fontFamily=Verdana;fontSize=12;align=center;spacingLeft=0;spacingRight=120;" parent="1" vertex="1">
          <mxGeometry x="391" y="439" width="20" height="20" as="geometry" />
        </mxCell>
        <mxCell id="39150e848f15840c-14" style="edgeStyle=elbowEdgeStyle;rounded=0;html=1;labelBackgroundColor=none;startArrow=halfCircle;startFill=0;startSize=8;endArrow=none;endFill=0;endSize=16;fontFamily=Verdana;fontSize=12;elbow=vertical;entryX=0.25;entryY=1;entryDx=0;entryDy=0;" parent="1" source="39150e848f15840c-6" target="RFsw-p9UoC0vcu6XtJwX-5" edge="1">
          <mxGeometry relative="1" as="geometry">
            <mxPoint x="381.20000000000005" y="184" as="targetPoint" />
          </mxGeometry>
        </mxCell>
        <mxCell id="RFsw-p9UoC0vcu6XtJwX-1" value="&lt;p style=&quot;margin: 6px 0px 0px; line-height: 650%;&quot;&gt;&lt;b style=&quot;background-color: initial;&quot;&gt;SaveHandeler&lt;/b&gt;&lt;br&gt;&lt;/p&gt;" style="align=center;overflow=fill;html=1;dropTarget=0;whiteSpace=wrap;" vertex="1" parent="1">
          <mxGeometry x="311" y="519" width="180" height="90" as="geometry" />
        </mxCell>
        <mxCell id="RFsw-p9UoC0vcu6XtJwX-2" value="" style="shape=component;jettyWidth=8;jettyHeight=4;" vertex="1" parent="RFsw-p9UoC0vcu6XtJwX-1">
          <mxGeometry x="1" width="20" height="20" relative="1" as="geometry">
            <mxPoint x="-24" y="4" as="offset" />
          </mxGeometry>
        </mxCell>
        <mxCell id="RFsw-p9UoC0vcu6XtJwX-3" value="&lt;p style=&quot;margin: 6px 0px 0px; line-height: 650%;&quot;&gt;&lt;b&gt;ConnectionHandeler&lt;/b&gt;&lt;/p&gt;" style="align=center;overflow=fill;html=1;dropTarget=0;whiteSpace=wrap;" vertex="1" parent="1">
          <mxGeometry x="811" y="289" width="180" height="90" as="geometry" />
        </mxCell>
        <mxCell id="RFsw-p9UoC0vcu6XtJwX-4" value="" style="shape=component;jettyWidth=8;jettyHeight=4;" vertex="1" parent="RFsw-p9UoC0vcu6XtJwX-3">
          <mxGeometry x="1" width="20" height="20" relative="1" as="geometry">
            <mxPoint x="-24" y="4" as="offset" />
          </mxGeometry>
        </mxCell>
        <mxCell id="RFsw-p9UoC0vcu6XtJwX-35" style="edgeStyle=orthogonalEdgeStyle;rounded=0;orthogonalLoop=1;jettySize=auto;html=1;exitX=0.75;exitY=0;exitDx=0;exitDy=0;entryX=0.5;entryY=1;entryDx=0;entryDy=0;endArrow=halfCircle;endFill=0;" edge="1" parent="1" source="RFsw-p9UoC0vcu6XtJwX-5" target="RFsw-p9UoC0vcu6XtJwX-34">
          <mxGeometry relative="1" as="geometry" />
        </mxCell>
        <mxCell id="RFsw-p9UoC0vcu6XtJwX-38" style="edgeStyle=orthogonalEdgeStyle;rounded=0;orthogonalLoop=1;jettySize=auto;html=1;exitX=0.75;exitY=1;exitDx=0;exitDy=0;entryX=0.5;entryY=0;entryDx=0;entryDy=0;endArrow=halfCircle;endFill=0;" edge="1" parent="1" source="RFsw-p9UoC0vcu6XtJwX-5" target="RFsw-p9UoC0vcu6XtJwX-37">
          <mxGeometry relative="1" as="geometry" />
        </mxCell>
        <mxCell id="RFsw-p9UoC0vcu6XtJwX-5" value="&lt;p style=&quot;margin: 6px 0px 0px; line-height: 650%;&quot;&gt;&lt;b&gt;GameEngine&lt;/b&gt;&lt;/p&gt;" style="align=center;overflow=fill;html=1;dropTarget=0;whiteSpace=wrap;" vertex="1" parent="1">
          <mxGeometry x="451" y="289" width="180" height="90" as="geometry" />
        </mxCell>
        <mxCell id="RFsw-p9UoC0vcu6XtJwX-6" value="" style="shape=component;jettyWidth=8;jettyHeight=4;" vertex="1" parent="RFsw-p9UoC0vcu6XtJwX-5">
          <mxGeometry x="1" width="20" height="20" relative="1" as="geometry">
            <mxPoint x="-24" y="4" as="offset" />
          </mxGeometry>
        </mxCell>
        <mxCell id="RFsw-p9UoC0vcu6XtJwX-7" value="&lt;p style=&quot;margin: 6px 0px 0px; line-height: 650%;&quot;&gt;&lt;b style=&quot;background-color: initial;&quot;&gt;WorldGenerator&lt;/b&gt;&lt;br&gt;&lt;/p&gt;" style="align=center;overflow=fill;html=1;dropTarget=0;whiteSpace=wrap;" vertex="1" parent="1">
          <mxGeometry x="591" y="519" width="180" height="90" as="geometry" />
        </mxCell>
        <mxCell id="RFsw-p9UoC0vcu6XtJwX-8" value="" style="shape=component;jettyWidth=8;jettyHeight=4;" vertex="1" parent="RFsw-p9UoC0vcu6XtJwX-7">
          <mxGeometry x="1" width="20" height="20" relative="1" as="geometry">
            <mxPoint x="-24" y="4" as="offset" />
          </mxGeometry>
        </mxCell>
        <mxCell id="RFsw-p9UoC0vcu6XtJwX-9" value="&lt;p style=&quot;margin: 6px 0px 0px; line-height: 650%;&quot;&gt;&lt;b&gt;GameUI&lt;/b&gt;&lt;/p&gt;" style="align=center;overflow=fill;html=1;dropTarget=0;whiteSpace=wrap;" vertex="1" parent="1">
          <mxGeometry x="109" y="289" width="180" height="90" as="geometry" />
        </mxCell>
        <mxCell id="RFsw-p9UoC0vcu6XtJwX-10" value="" style="shape=component;jettyWidth=8;jettyHeight=4;" vertex="1" parent="RFsw-p9UoC0vcu6XtJwX-9">
          <mxGeometry x="1" width="20" height="20" relative="1" as="geometry">
            <mxPoint x="-24" y="4" as="offset" />
          </mxGeometry>
        </mxCell>
        <mxCell id="RFsw-p9UoC0vcu6XtJwX-11" value="&lt;p style=&quot;margin: 6px 0px 0px; line-height: 650%;&quot;&gt;&lt;b&gt;CharacterHandeler&lt;/b&gt;&lt;/p&gt;" style="align=center;overflow=fill;html=1;dropTarget=0;whiteSpace=wrap;" vertex="1" parent="1">
          <mxGeometry x="311" y="59" width="180" height="90" as="geometry" />
        </mxCell>
        <mxCell id="RFsw-p9UoC0vcu6XtJwX-12" value="" style="shape=component;jettyWidth=8;jettyHeight=4;" vertex="1" parent="RFsw-p9UoC0vcu6XtJwX-11">
          <mxGeometry x="1" width="20" height="20" relative="1" as="geometry">
            <mxPoint x="-24" y="4" as="offset" />
          </mxGeometry>
        </mxCell>
        <mxCell id="RFsw-p9UoC0vcu6XtJwX-13" value="&lt;p style=&quot;margin: 6px 0px 0px; line-height: 650%;&quot;&gt;&lt;b&gt;GameGenerator&lt;/b&gt;&lt;/p&gt;" style="align=center;overflow=fill;html=1;dropTarget=0;whiteSpace=wrap;" vertex="1" parent="1">
          <mxGeometry x="451" y="700" width="180" height="90" as="geometry" />
        </mxCell>
        <mxCell id="RFsw-p9UoC0vcu6XtJwX-14" value="" style="shape=component;jettyWidth=8;jettyHeight=4;" vertex="1" parent="RFsw-p9UoC0vcu6XtJwX-13">
          <mxGeometry x="1" width="20" height="20" relative="1" as="geometry">
            <mxPoint x="-24" y="4" as="offset" />
          </mxGeometry>
        </mxCell>
        <mxCell id="RFsw-p9UoC0vcu6XtJwX-15" value="&lt;p style=&quot;margin: 6px 0px 0px; line-height: 650%;&quot;&gt;&lt;b&gt;ItemHandeler&lt;/b&gt;&lt;/p&gt;" style="align=center;overflow=fill;html=1;dropTarget=0;whiteSpace=wrap;" vertex="1" parent="1">
          <mxGeometry x="591" y="59" width="180" height="90" as="geometry" />
        </mxCell>
        <mxCell id="RFsw-p9UoC0vcu6XtJwX-16" value="" style="shape=component;jettyWidth=8;jettyHeight=4;" vertex="1" parent="RFsw-p9UoC0vcu6XtJwX-15">
          <mxGeometry x="1" width="20" height="20" relative="1" as="geometry">
            <mxPoint x="-24" y="4" as="offset" />
          </mxGeometry>
        </mxCell>
        <mxCell id="RFsw-p9UoC0vcu6XtJwX-19" style="edgeStyle=orthogonalEdgeStyle;rounded=0;orthogonalLoop=1;jettySize=auto;html=1;exitX=0;exitY=0.5;exitDx=0;exitDy=0;entryX=1;entryY=0.25;entryDx=0;entryDy=0;endArrow=none;endFill=0;" edge="1" parent="1" source="RFsw-p9UoC0vcu6XtJwX-18" target="RFsw-p9UoC0vcu6XtJwX-5">
          <mxGeometry relative="1" as="geometry" />
        </mxCell>
        <mxCell id="RFsw-p9UoC0vcu6XtJwX-20" style="edgeStyle=orthogonalEdgeStyle;rounded=0;orthogonalLoop=1;jettySize=auto;html=1;exitX=1;exitY=0.5;exitDx=0;exitDy=0;endArrow=none;endFill=0;startArrow=halfCircle;startFill=0;entryX=0;entryY=0.25;entryDx=0;entryDy=0;" edge="1" parent="1" source="RFsw-p9UoC0vcu6XtJwX-18" target="RFsw-p9UoC0vcu6XtJwX-3">
          <mxGeometry relative="1" as="geometry" />
        </mxCell>
        <mxCell id="RFsw-p9UoC0vcu6XtJwX-18" value="IDataReceiver" style="ellipse;whiteSpace=wrap;html=1;rounded=0;shadow=0;comic=0;labelBackgroundColor=none;strokeWidth=1;fontFamily=Verdana;fontSize=12;align=center;spacingBottom=40;" vertex="1" parent="1">
          <mxGeometry x="711" y="302" width="20" height="20" as="geometry" />
        </mxCell>
        <mxCell id="RFsw-p9UoC0vcu6XtJwX-25" style="edgeStyle=orthogonalEdgeStyle;rounded=0;orthogonalLoop=1;jettySize=auto;html=1;exitX=1;exitY=0.5;exitDx=0;exitDy=0;entryX=0;entryY=0.25;entryDx=0;entryDy=0;endArrow=none;endFill=0;" edge="1" parent="1" source="RFsw-p9UoC0vcu6XtJwX-21" target="RFsw-p9UoC0vcu6XtJwX-5">
          <mxGeometry relative="1" as="geometry" />
        </mxCell>
        <mxCell id="RFsw-p9UoC0vcu6XtJwX-27" style="edgeStyle=orthogonalEdgeStyle;rounded=0;orthogonalLoop=1;jettySize=auto;html=1;exitX=0;exitY=0.5;exitDx=0;exitDy=0;entryX=1;entryY=0.25;entryDx=0;entryDy=0;startArrow=halfCircle;startFill=0;endArrow=none;endFill=0;" edge="1" parent="1" source="RFsw-p9UoC0vcu6XtJwX-21" target="RFsw-p9UoC0vcu6XtJwX-9">
          <mxGeometry relative="1" as="geometry" />
        </mxCell>
        <mxCell id="RFsw-p9UoC0vcu6XtJwX-21" value="IUserAction" style="ellipse;whiteSpace=wrap;html=1;rounded=0;shadow=0;comic=0;labelBackgroundColor=none;strokeWidth=1;fontFamily=Verdana;fontSize=12;align=center;spacingTop=0;spacingBottom=40;" vertex="1" parent="1">
          <mxGeometry x="361" y="302" width="20" height="20" as="geometry" />
        </mxCell>
        <mxCell id="RFsw-p9UoC0vcu6XtJwX-23" style="edgeStyle=orthogonalEdgeStyle;rounded=0;orthogonalLoop=1;jettySize=auto;html=1;exitX=0;exitY=0.5;exitDx=0;exitDy=0;entryX=1;entryY=0.75;entryDx=0;entryDy=0;endArrow=none;endFill=0;startArrow=halfCircle;startFill=0;" edge="1" parent="1" source="RFsw-p9UoC0vcu6XtJwX-22" target="RFsw-p9UoC0vcu6XtJwX-5">
          <mxGeometry relative="1" as="geometry" />
        </mxCell>
        <mxCell id="RFsw-p9UoC0vcu6XtJwX-24" style="edgeStyle=orthogonalEdgeStyle;rounded=0;orthogonalLoop=1;jettySize=auto;html=1;exitX=1;exitY=0.5;exitDx=0;exitDy=0;entryX=0;entryY=0.75;entryDx=0;entryDy=0;endArrow=none;endFill=0;startArrow=none;startFill=0;" edge="1" parent="1" source="RFsw-p9UoC0vcu6XtJwX-22" target="RFsw-p9UoC0vcu6XtJwX-3">
          <mxGeometry relative="1" as="geometry" />
        </mxCell>
        <mxCell id="RFsw-p9UoC0vcu6XtJwX-22" value="IDataSender" style="ellipse;whiteSpace=wrap;html=1;rounded=0;shadow=0;comic=0;labelBackgroundColor=none;strokeWidth=1;fontFamily=Verdana;fontSize=12;align=center;spacingTop=40;" vertex="1" parent="1">
          <mxGeometry x="711" y="346" width="20" height="20" as="geometry" />
        </mxCell>
        <mxCell id="RFsw-p9UoC0vcu6XtJwX-29" style="edgeStyle=orthogonalEdgeStyle;rounded=0;orthogonalLoop=1;jettySize=auto;html=1;exitX=0;exitY=0.5;exitDx=0;exitDy=0;entryX=1;entryY=0.75;entryDx=0;entryDy=0;endArrow=none;endFill=0;" edge="1" parent="1" source="RFsw-p9UoC0vcu6XtJwX-28" target="RFsw-p9UoC0vcu6XtJwX-9">
          <mxGeometry relative="1" as="geometry" />
        </mxCell>
        <mxCell id="RFsw-p9UoC0vcu6XtJwX-30" style="edgeStyle=orthogonalEdgeStyle;rounded=0;orthogonalLoop=1;jettySize=auto;html=1;exitX=1;exitY=0.5;exitDx=0;exitDy=0;entryX=0;entryY=0.75;entryDx=0;entryDy=0;endArrow=none;endFill=0;startArrow=halfCircle;startFill=0;" edge="1" parent="1" source="RFsw-p9UoC0vcu6XtJwX-28" target="RFsw-p9UoC0vcu6XtJwX-5">
          <mxGeometry relative="1" as="geometry" />
        </mxCell>
        <mxCell id="RFsw-p9UoC0vcu6XtJwX-28" value="IGameRender" style="ellipse;whiteSpace=wrap;html=1;rounded=0;shadow=0;comic=0;labelBackgroundColor=none;strokeWidth=1;fontFamily=Verdana;fontSize=12;align=center;spacingTop=40;" vertex="1" parent="1">
          <mxGeometry x="361" y="346" width="20" height="20" as="geometry" />
        </mxCell>
        <mxCell id="RFsw-p9UoC0vcu6XtJwX-32" style="edgeStyle=orthogonalEdgeStyle;rounded=0;orthogonalLoop=1;jettySize=auto;html=1;exitX=0.5;exitY=1;exitDx=0;exitDy=0;entryX=0.25;entryY=0;entryDx=0;entryDy=0;endArrow=none;endFill=0;startArrow=halfCircle;startFill=0;" edge="1" parent="1" source="RFsw-p9UoC0vcu6XtJwX-31" target="RFsw-p9UoC0vcu6XtJwX-5">
          <mxGeometry relative="1" as="geometry" />
        </mxCell>
        <mxCell id="RFsw-p9UoC0vcu6XtJwX-33" style="edgeStyle=orthogonalEdgeStyle;rounded=0;orthogonalLoop=1;jettySize=auto;html=1;exitX=0.5;exitY=0;exitDx=0;exitDy=0;entryX=0.5;entryY=1;entryDx=0;entryDy=0;endArrow=none;endFill=0;" edge="1" parent="1" source="RFsw-p9UoC0vcu6XtJwX-31" target="RFsw-p9UoC0vcu6XtJwX-11">
          <mxGeometry relative="1" as="geometry" />
        </mxCell>
        <mxCell id="RFsw-p9UoC0vcu6XtJwX-31" value="ICharacterHandeler" style="ellipse;whiteSpace=wrap;html=1;rounded=0;shadow=0;comic=0;labelBackgroundColor=none;strokeWidth=1;fontFamily=Verdana;fontSize=12;align=center;spacingRight=150;" vertex="1" parent="1">
          <mxGeometry x="391" y="209" width="20" height="20" as="geometry" />
        </mxCell>
        <mxCell id="RFsw-p9UoC0vcu6XtJwX-36" style="edgeStyle=orthogonalEdgeStyle;rounded=0;orthogonalLoop=1;jettySize=auto;html=1;exitX=0.5;exitY=0;exitDx=0;exitDy=0;entryX=0.5;entryY=1;entryDx=0;entryDy=0;endArrow=none;endFill=0;" edge="1" parent="1" source="RFsw-p9UoC0vcu6XtJwX-34" target="RFsw-p9UoC0vcu6XtJwX-15">
          <mxGeometry relative="1" as="geometry" />
        </mxCell>
        <mxCell id="RFsw-p9UoC0vcu6XtJwX-34" value="IItemHandeler" style="ellipse;whiteSpace=wrap;html=1;rounded=0;shadow=0;comic=0;labelBackgroundColor=none;strokeWidth=1;fontFamily=Verdana;fontSize=12;align=center;spacingLeft=120;" vertex="1" parent="1">
          <mxGeometry x="671" y="209" width="20" height="20" as="geometry" />
        </mxCell>
        <mxCell id="RFsw-p9UoC0vcu6XtJwX-39" style="edgeStyle=orthogonalEdgeStyle;rounded=0;orthogonalLoop=1;jettySize=auto;html=1;exitX=0.5;exitY=1;exitDx=0;exitDy=0;entryX=0.5;entryY=0;entryDx=0;entryDy=0;endArrow=none;endFill=0;" edge="1" parent="1" source="RFsw-p9UoC0vcu6XtJwX-37" target="RFsw-p9UoC0vcu6XtJwX-7">
          <mxGeometry relative="1" as="geometry" />
        </mxCell>
        <mxCell id="RFsw-p9UoC0vcu6XtJwX-37" value="IGameWorld" style="ellipse;whiteSpace=wrap;html=1;rounded=0;shadow=0;comic=0;labelBackgroundColor=none;strokeWidth=1;fontFamily=Verdana;fontSize=12;align=center;spacingLeft=110;" vertex="1" parent="1">
          <mxGeometry x="671" y="439" width="20" height="20" as="geometry" />
        </mxCell>
      </root>
    </mxGraphModel>
  </diagram>
</mxfile>
